<svg width="360" height="536" viewBox="0 0 360 536" fill="none" xmlns="http://www.w3.org/2000/svg">
<g clip-path="url(#clip0_765_60)">
<path fill-rule="evenodd" clip-rule="evenodd" d="M0 536V0H180H360V268V536H180H0ZM180.008 518.235C324.521 518.252 340.065 518.208 340.671 517.784C341.039 517.526 341.544 516.924 341.791 516.446C342.189 515.677 342.241 487.059 342.241 268C342.241 47.2925 342.191 20.3278 341.784 19.5412C341.533 19.0559 340.93 18.4536 340.445 18.2026C339.659 17.7965 321.989 17.7464 179.568 17.7464C19.5747 17.7464 19.5747 17.7464 18.5917 18.624C17.6087 19.5017 17.6087 19.5017 17.6087 267.944C17.6087 515.962 17.6097 516.387 18.2107 517.054C18.5418 517.422 19.0836 517.834 19.4147 517.969C19.7458 518.105 92.0129 518.224 180.008 518.235ZM89.398 488.832C87.3286 488.884 84.2809 488.899 82.6254 488.865C80.9699 488.831 78.2609 488.583 76.6053 488.314C74.9498 488.046 72.6472 487.586 71.4883 487.293C70.3294 487 67.7559 486.123 65.7692 485.344C63.7826 484.565 61.0736 483.304 59.7492 482.541C58.4247 481.779 56.1221 480.173 54.6321 478.974C53.1421 477.775 51.1104 475.813 50.1171 474.616C49.1237 473.418 47.7239 471.614 47.0063 470.606C46.2888 469.599 45.2578 467.895 44.7152 466.819C44.1727 465.744 43.2453 463.566 42.6544 461.98C42.0635 460.394 41.3726 458.003 41.1191 456.668C40.7408 454.675 40.7245 454.011 41.028 452.963C41.234 452.252 41.7409 451.431 42.1726 451.109C42.6997 450.716 45.5375 450.005 51.0473 448.886C56.2321 447.833 59.4996 447.305 60.1266 447.419C60.6653 447.517 61.365 447.874 61.6814 448.214C61.9979 448.553 62.4912 449.731 62.7777 450.832C63.0643 451.932 63.5613 453.641 63.8824 454.629C64.2034 455.617 65.0197 457.376 65.6963 458.539C66.373 459.702 67.8195 461.549 68.9107 462.644C70.002 463.738 71.8984 465.283 73.1249 466.076C74.3515 466.869 76.2459 467.824 77.3347 468.199C78.4235 468.574 80.1271 469.044 81.1204 469.242C82.2302 469.464 84.4349 469.55 86.8395 469.467C90.2624 469.347 91.1107 469.207 93.612 468.349C95.1848 467.809 97.4587 466.758 98.6652 466.012C99.8717 465.267 101.52 463.986 102.327 463.166C103.135 462.346 104.334 460.769 104.991 459.661C105.649 458.552 106.473 456.717 106.823 455.583C107.325 453.953 107.458 452.736 107.458 449.771C107.458 446.54 107.351 445.701 106.684 443.715C106.257 442.446 105.453 440.663 104.896 439.751C104.338 438.84 103.095 437.331 102.133 436.398C101.172 435.465 99.4473 434.211 98.3017 433.612C97.1561 433.014 95.1512 432.187 93.8464 431.775C91.7082 431.1 90.9716 431.026 86.3871 431.026C82.8366 431.026 80.7767 431.162 79.5668 431.477C78.6134 431.725 77.3899 431.928 76.8479 431.928C76.1874 431.928 75.5713 431.655 74.9798 431.101C74.4944 430.646 72.8404 428.244 71.3042 425.762C69.768 423.281 68.0467 420.346 67.4791 419.24C66.6179 417.563 66.4822 417.043 66.6593 416.1C66.8182 415.254 67.4132 414.411 69.0294 412.743C70.2162 411.518 72.3386 409.556 73.7458 408.384C75.153 407.211 77.3202 405.27 78.5619 404.07C79.8035 402.87 81.6998 401.191 82.7759 400.34C83.852 399.489 85.8846 397.687 87.2928 396.336C88.7009 394.984 90.902 392.956 92.1841 391.827C94.2248 390.031 94.515 389.649 94.515 388.761C94.515 388.054 94.3125 387.605 93.8461 387.279C93.2555 386.865 90.5138 386.808 70.4431 386.793C53.6409 386.781 47.4415 386.683 46.6837 386.417C46.1198 386.22 45.3748 385.676 45.0282 385.209C44.43 384.403 44.398 383.996 44.398 377.185C44.398 370.38 44.4304 369.967 45.0268 369.161C45.3727 368.694 46.1854 368.141 46.8328 367.931C47.7627 367.631 56.104 367.567 86.5385 367.631C119.047 367.698 125.197 367.777 125.897 368.136C126.452 368.42 126.852 368.97 127.101 369.79C127.348 370.601 127.475 373.168 127.475 377.336C127.475 381.591 127.35 384.064 127.091 384.914C126.869 385.647 126.062 386.882 125.166 387.862C124.318 388.789 122.518 390.454 121.166 391.563C119.813 392.671 117.632 394.55 116.318 395.738C115.005 396.925 112.914 398.787 111.672 399.875C110.431 400.962 107.992 403.058 106.254 404.532C104.516 406.006 102.225 408.096 101.163 409.176C99.9455 410.414 99.186 411.452 99.1077 411.985C99.019 412.589 99.1832 413.016 99.6841 413.483C100.086 413.857 101.443 414.405 102.867 414.767C104.233 415.114 106.332 415.75 107.533 416.181C108.733 416.612 110.461 417.342 111.371 417.804C112.282 418.266 114.105 419.398 115.423 420.32C116.741 421.242 118.535 422.615 119.41 423.37C120.285 424.125 121.794 425.784 122.763 427.057C123.731 428.33 125.155 430.459 125.926 431.787C126.698 433.116 127.721 435.353 128.199 436.757C128.677 438.162 129.353 440.626 129.701 442.232C130.203 444.546 130.332 446.169 130.324 450.045C130.318 452.799 130.135 455.925 129.906 457.194C129.682 458.435 129.145 460.465 128.714 461.706C128.283 462.947 127.44 464.937 126.84 466.13C126.241 467.322 124.979 469.488 124.038 470.943C123.096 472.399 121.479 474.493 120.445 475.598C119.411 476.703 117.251 478.613 115.645 479.843C114.039 481.072 111.319 482.784 109.601 483.646C107.882 484.507 105.444 485.613 104.183 486.102C102.921 486.591 99.9256 487.384 97.5251 487.864C94.4808 488.473 92.0223 488.766 89.398 488.832ZM185.117 486.041C179.241 486.045 177.217 485.949 176.486 485.631C175.96 485.402 175.283 484.838 174.981 484.377C174.457 483.579 174.429 481.791 174.371 446.379C174.337 425.941 174.202 408.758 174.07 408.195C173.933 407.615 173.462 406.898 172.98 406.541C172.161 405.932 171.717 405.905 160.188 405.756C150.65 405.633 148.073 405.516 147.394 405.171C146.926 404.934 146.32 404.327 146.046 403.821C145.671 403.129 145.521 401.874 145.437 398.727C145.375 396.431 145.419 393.802 145.533 392.886C145.689 391.644 145.952 391.01 146.565 390.397C147.209 389.754 147.78 389.532 149.171 389.386C150.151 389.283 152.247 388.876 153.829 388.482C155.41 388.088 157.781 387.347 159.096 386.836C160.412 386.325 162.504 385.345 163.746 384.658C165.403 383.741 166.94 382.475 169.527 379.896C172.549 376.883 173.212 376.041 174.192 373.977C174.82 372.654 175.589 370.929 175.901 370.143C176.326 369.072 176.731 368.59 177.523 368.213C178.423 367.784 179.699 367.71 186.19 367.71C193.439 367.71 193.843 367.74 194.652 368.339C195.119 368.684 195.673 369.497 195.882 370.144C196.185 371.078 196.247 382.847 196.183 427.47C196.104 483.619 196.104 483.619 195.473 484.468C195.127 484.935 194.382 485.479 193.818 485.677C193.129 485.918 190.278 486.037 185.117 486.041ZM285.405 485.989C278.531 486.045 276.578 485.974 275.817 485.638C275.291 485.405 274.614 484.839 274.312 484.378C273.813 483.617 273.755 482.634 273.679 473.601C273.625 467.03 273.48 463.369 273.252 462.798C273.062 462.324 272.49 461.681 271.981 461.371C271.094 460.83 269.953 460.805 245.769 460.782C227.326 460.764 220.168 460.662 219.313 460.404C218.668 460.209 217.856 459.669 217.507 459.202C216.898 458.387 216.869 457.973 216.779 448.589C216.719 442.37 216.803 438.254 217.011 437.256C217.19 436.393 217.742 435.011 218.238 434.184C218.734 433.357 220.14 431.35 221.362 429.725C222.584 428.1 225.851 423.68 228.621 419.903C231.391 416.126 235.861 410.035 238.554 406.368C241.247 402.7 245.717 396.609 248.487 392.832C251.257 389.055 255.683 383.008 258.323 379.394C260.962 375.781 263.919 371.851 264.894 370.662C266.424 368.795 266.882 368.433 268.257 368.009C269.644 367.58 271.411 367.529 281.943 367.613C293.662 367.707 294.063 367.73 294.886 368.339C295.498 368.792 295.843 369.423 296.118 370.595C296.413 371.85 296.517 379.843 296.57 405.527C296.639 438.833 296.639 438.833 297.473 439.667C298.307 440.501 298.307 440.501 306.105 440.651C313.421 440.792 313.957 440.84 314.753 441.431C315.29 441.829 315.731 442.548 315.954 443.386C316.167 444.187 316.306 447.091 316.306 450.727C316.306 454.363 316.167 457.267 315.954 458.068C315.731 458.907 315.29 459.625 314.753 460.023C313.956 460.615 313.477 460.657 306.927 460.723C302.31 460.769 299.542 460.922 298.746 461.174C297.857 461.456 297.404 461.831 297.016 462.608C296.551 463.538 296.486 464.735 296.465 472.835C296.448 478.804 296.317 482.472 296.088 483.334C295.865 484.173 295.424 484.891 294.887 485.289C294.077 485.89 293.637 485.922 285.405 485.989ZM256.705 440.561C271.856 440.501 271.856 440.501 272.734 439.518C273.612 438.536 273.612 438.536 273.608 417.711C273.604 401.583 273.518 396.717 273.224 396.135C272.981 395.652 272.54 395.348 271.992 395.284C271.306 395.205 270.895 395.449 269.892 396.528C269.206 397.266 267.494 399.455 266.087 401.391C264.68 403.328 262.113 406.829 260.384 409.171C258.654 411.513 256.148 414.933 254.815 416.769C253.482 418.606 250.977 422.058 249.248 424.439C247.519 426.821 244.945 430.326 243.529 432.229C242.112 434.131 240.629 436.336 240.232 437.127C239.631 438.328 239.568 438.691 239.854 439.317C240.042 439.729 240.502 440.192 240.875 440.344C241.266 440.503 248.003 440.596 256.705 440.561ZM273.924 299.248C272.18 299.229 269.601 299.02 268.194 298.784C266.787 298.548 264.384 298.091 262.854 297.768C261.324 297.445 258.577 296.581 256.75 295.847C254.923 295.113 252.179 293.727 250.652 292.768C249.125 291.808 246.925 290.073 245.762 288.911C244.599 287.75 242.889 285.716 241.962 284.393C241.034 283.069 239.805 281.039 239.23 279.881C238.654 278.723 237.82 276.813 237.376 275.637C236.932 274.461 236.207 271.957 235.765 270.073C234.962 266.646 234.962 266.646 234.864 229.208C234.787 199.45 234.846 191.526 235.151 190.584C235.362 189.932 235.918 189.115 236.385 188.77C237.172 188.188 237.63 188.141 242.609 188.141C247.591 188.141 248.044 188.187 248.832 188.771C249.371 189.17 249.811 189.887 250.034 190.726C250.293 191.7 250.393 201.697 250.413 228.447C250.438 263.905 250.455 264.908 251.049 267.398C251.384 268.805 252.226 271.106 252.921 272.512C253.945 274.587 254.722 275.612 257.05 277.958C259.453 280.38 260.33 281.046 262.475 282.077C263.882 282.754 266.204 283.598 267.635 283.954C269.863 284.508 270.857 284.583 274.558 284.473C278.144 284.367 279.341 284.206 281.589 283.53C283.079 283.081 285.002 282.363 285.862 281.933C286.723 281.504 288.29 280.436 289.346 279.56C290.402 278.684 291.828 277.24 292.515 276.35C293.202 275.459 294.163 273.941 294.651 272.976C295.138 272.011 295.89 269.921 296.323 268.332C297.109 265.443 297.109 265.443 297.175 228.296C297.234 194.719 297.288 191.046 297.731 190.073C298.049 189.374 298.576 188.847 299.236 188.569C299.988 188.252 301.668 188.141 305.722 188.141C310.804 188.141 311.254 188.186 312.043 188.771C312.581 189.17 313.022 189.887 313.245 190.726C313.503 191.697 313.605 200.954 313.625 225.288C313.649 253.5 313.583 259.071 313.191 262.135C312.938 264.12 312.53 266.994 312.285 268.523C312.04 270.051 311.419 272.623 310.904 274.238C310.39 275.853 309.353 278.324 308.599 279.731C307.846 281.137 306.647 283.177 305.935 284.264C305.223 285.352 303.484 287.35 302.071 288.706C300.659 290.061 298.519 291.811 297.317 292.594C296.114 293.377 293.912 294.581 292.423 295.269C290.934 295.957 288.429 296.864 286.856 297.283C285.283 297.703 282.444 298.324 280.546 298.664C278.346 299.058 275.945 299.269 273.924 299.248ZM76.0033 296.531C59.2247 296.525 45.4925 296.401 44.9755 296.251C44.4654 296.103 43.8119 295.721 43.5233 295.403C43.2348 295.084 42.861 293.965 42.6928 292.917C42.4915 291.662 42.422 273.893 42.4895 240.929C42.5791 197.148 42.6488 190.736 43.0435 189.957C43.2918 189.467 43.8662 188.858 44.3199 188.604C45.0468 188.196 48.7876 188.141 75.8012 188.141C95.4742 188.141 106.761 188.249 107.303 188.442C107.769 188.608 108.434 189.125 108.782 189.592C109.36 190.367 109.415 190.836 109.415 195.028C109.415 197.551 109.279 199.998 109.114 200.465C108.948 200.932 108.43 201.599 107.963 201.947C107.119 202.575 106.958 202.58 84.7858 202.64C67.4546 202.688 62.1888 202.789 61.2542 203.092C60.3702 203.378 59.9103 203.761 59.5239 204.534C59.0463 205.49 58.998 206.826 59.0016 218.972C59.0046 229.126 59.097 232.538 59.3845 233.109C59.593 233.522 60.2344 234.102 60.8099 234.398C61.7796 234.895 63.3327 234.939 82.0234 234.999C99.3159 235.055 102.319 235.129 103.091 235.518C103.586 235.768 104.188 236.377 104.429 236.871C104.71 237.448 104.911 239.066 104.99 241.38C105.072 243.799 104.978 245.526 104.705 246.615C104.417 247.764 104.048 248.426 103.448 248.871C102.61 249.494 102.328 249.504 81.7072 249.652C60.8159 249.802 60.8159 249.802 59.9815 250.636C59.1472 251.47 59.1472 251.47 59.1472 266.195C59.1472 280.92 59.1472 280.92 59.9817 281.754C60.8162 282.588 60.8162 282.588 83.3094 282.664C100.277 282.721 106.092 282.832 106.98 283.115C107.627 283.322 108.44 283.873 108.786 284.34C109.357 285.111 109.415 285.597 109.415 289.657C109.415 293.72 109.358 294.201 108.785 294.973C108.438 295.441 107.693 295.984 107.129 296.182C106.36 296.451 98.5737 296.538 76.0033 296.531ZM128.077 296.561C124.345 296.554 122.694 296.436 121.979 296.125C121.408 295.877 120.866 295.351 120.681 294.864C120.432 294.209 120.486 293.67 120.933 292.369C121.246 291.456 123.697 285.195 126.379 278.456C129.061 271.716 134.159 258.89 137.708 249.952C141.257 241.015 147.629 225.008 151.869 214.381C156.108 203.754 160.142 193.774 160.834 192.202C161.953 189.656 162.222 189.279 163.294 188.743C164.355 188.213 165.227 188.129 170.62 188.039C175.93 187.95 176.968 188.01 178.446 188.49C180.125 189.035 180.167 189.078 181.254 191.3C181.86 192.54 187.376 206.179 193.511 221.607C199.646 237.035 208.422 259.098 213.013 270.635C217.604 282.172 221.543 292.16 221.766 292.829C222.065 293.727 222.089 294.264 221.857 294.874C221.665 295.379 221.134 295.872 220.497 296.138C219.713 296.465 218.108 296.573 214.098 296.568C209.497 296.562 208.57 296.481 207.49 295.992C206.799 295.678 206.034 295.106 205.789 294.72C205.545 294.334 204.736 292.394 203.993 290.409C203.25 288.423 201.934 285.04 201.069 282.889C200.204 280.738 198.882 277.354 198.132 275.369C197.381 273.384 196.384 270.94 195.915 269.939C195.267 268.554 194.78 267.959 193.886 267.457C192.711 266.797 192.711 266.797 171.064 266.797C149.418 266.797 149.418 266.797 148.17 267.606C147.169 268.254 146.72 268.866 145.905 270.689C145.346 271.94 144.327 274.452 143.64 276.272C142.952 278.091 141.704 281.408 140.866 283.641C140.028 285.874 138.707 289.322 137.932 291.302C137.156 293.283 136.29 295.135 136.006 295.419C135.723 295.702 134.974 296.077 134.342 296.253C133.711 296.428 130.891 296.567 128.077 296.561ZM170.91 252.046C183.338 252.057 185.576 251.992 186.332 251.602C186.818 251.351 187.302 250.801 187.407 250.38C187.513 249.96 187.532 249.116 187.448 248.506C187.365 247.896 184.35 239.749 180.749 230.402C177.147 221.055 173.799 212.557 173.31 211.517C172.821 210.477 172.089 209.409 171.683 209.143C171.088 208.753 170.798 208.727 170.185 209.006C169.685 209.234 169.137 209.994 168.584 211.229C168.122 212.262 166.84 215.475 165.735 218.37C164.631 221.265 163.169 225.123 162.485 226.943C161.802 228.763 160.325 232.62 159.202 235.515C158.08 238.41 156.6 242.268 155.914 244.088C155.228 245.907 154.594 247.896 154.504 248.506C154.414 249.116 154.427 249.959 154.532 250.378C154.637 250.798 155.094 251.342 155.547 251.588C156.243 251.965 158.638 252.036 170.91 252.046ZM172.937 166.604C171.276 166.586 168.359 166.322 166.455 166.018C164.551 165.713 161.91 165.197 160.585 164.871C159.261 164.546 156.755 163.688 155.017 162.965C153.278 162.243 150.482 160.745 148.802 159.638C147.028 158.469 145.029 156.833 144.034 155.738C143.091 154.701 141.604 152.837 140.729 151.596C139.854 150.355 138.668 148.393 138.092 147.235C137.517 146.077 136.683 144.167 136.239 142.991C135.795 141.814 135.07 139.31 134.628 137.426C133.825 134 133.825 134 133.727 96.5616C133.65 66.8039 133.708 58.8799 134.014 57.9374C134.225 57.2853 134.78 56.4689 135.248 56.1233C136.035 55.5412 136.493 55.4949 141.472 55.4949C146.454 55.4949 146.907 55.5408 147.695 56.1247C148.233 56.5235 148.674 57.2405 148.897 58.0798C149.156 59.0539 149.256 69.0502 149.276 95.8002C149.301 131.258 149.318 132.261 149.912 134.752C150.247 136.158 151.089 138.459 151.783 139.865C152.808 141.941 153.585 142.966 155.912 145.312C158.316 147.734 159.193 148.4 161.338 149.431C162.745 150.107 165.067 150.952 166.498 151.308C168.726 151.862 169.72 151.936 173.421 151.826C177.007 151.72 178.204 151.56 180.452 150.883C181.941 150.435 183.865 149.716 184.725 149.287C185.586 148.857 187.153 147.789 188.209 146.914C189.265 146.038 190.691 144.593 191.378 143.703C192.065 142.813 193.026 141.295 193.513 140.33C194.001 139.364 194.753 137.274 195.186 135.686C195.972 132.797 195.972 132.797 196.038 95.6498C196.097 62.0722 196.151 58.3994 196.593 57.4267C196.912 56.7274 197.439 56.2008 198.098 55.9227C198.851 55.6058 200.531 55.4949 204.585 55.4949C209.667 55.4949 210.117 55.5398 210.906 56.1247C211.444 56.5234 211.885 57.2408 212.108 58.0798C212.366 59.0502 212.467 68.3074 212.488 92.642C212.511 120.854 212.446 126.424 212.054 129.488C211.8 131.473 211.392 134.348 211.148 135.876C210.903 137.404 210.282 139.976 209.767 141.591C209.253 143.206 208.216 145.678 207.462 147.084C206.709 148.49 205.51 150.531 204.798 151.618C204.086 152.705 202.347 154.704 200.934 156.059C199.522 157.414 197.382 159.164 196.179 159.947C194.977 160.731 192.775 161.935 191.286 162.623C189.797 163.311 187.292 164.217 185.719 164.637C184.146 165.057 181.307 165.678 179.409 166.018C177.28 166.399 174.8 166.623 172.937 166.604ZM67.2742 163.82C55.0888 163.856 45.5044 163.766 44.9755 163.61C44.4654 163.459 43.8119 163.075 43.5233 162.756C43.2348 162.438 42.861 161.319 42.6928 160.27C42.4915 159.015 42.422 141.246 42.4895 108.283C42.5791 64.5017 42.6488 58.0899 43.0435 57.3106C43.2918 56.8203 43.8662 56.2112 44.3199 55.9571C45.0374 55.5551 47.6038 55.4949 64.0356 55.4949C81.2129 55.4949 83.1994 55.5459 85.9365 56.0573C87.592 56.3666 90.1911 57.0132 91.7124 57.4943C93.2336 57.9753 95.5363 58.9034 96.8294 59.5565C98.1226 60.2098 100.101 61.4399 101.227 62.2902C102.352 63.1405 103.922 64.6369 104.714 65.6154C105.506 66.5939 106.654 68.2363 107.264 69.2651C107.874 70.294 108.797 72.2186 109.317 73.5421C109.836 74.8656 110.509 76.9635 110.813 78.2043C111.201 79.785 111.366 81.5854 111.365 84.22C111.364 86.758 111.174 88.8952 110.782 90.7968C110.384 92.7247 109.716 94.6039 108.667 96.751C107.369 99.4061 106.753 100.268 104.662 102.361C103.303 103.721 101.606 105.328 100.892 105.931C99.7216 106.92 99.6021 107.143 99.6877 108.182C99.7773 109.271 99.9423 109.444 102.642 111.27C104.215 112.335 106.359 114.084 107.407 115.159C108.455 116.233 109.913 118.137 110.648 119.39C111.383 120.643 112.376 122.683 112.854 123.924C113.332 125.164 114.026 127.595 114.395 129.325C114.944 131.892 115.034 133.025 114.89 135.491C114.792 137.158 114.368 139.859 113.944 141.52C113.494 143.28 112.501 145.902 111.55 147.843C110.319 150.353 109.423 151.701 107.863 153.387C106.73 154.613 104.784 156.369 103.54 157.29C102.295 158.211 99.7894 159.668 97.9713 160.528C96.1531 161.388 93.311 162.466 91.6555 162.924C88.6455 163.757 88.6455 163.757 67.2742 163.82ZM245.372 163.838C242.445 163.871 239.633 163.771 239.123 163.617C238.613 163.462 237.959 163.075 237.67 162.756C237.382 162.438 237.008 161.319 236.84 160.27C236.639 159.015 236.569 141.246 236.637 108.283C236.726 64.5017 236.796 58.0899 237.191 57.3106C237.439 56.8203 238.013 56.2112 238.467 55.9571C239.188 55.5532 242.054 55.4949 261.193 55.4949C283.094 55.4949 283.094 55.4949 287.226 56.4954C289.967 57.159 292.275 57.9415 294.08 58.8195C295.577 59.5476 297.578 60.6701 298.526 61.3141C299.475 61.9581 300.958 63.1205 301.822 63.8972C302.686 64.6738 304.073 66.2142 304.905 67.3202C305.737 68.4262 306.889 70.2242 307.465 71.3158C308.042 72.4074 308.971 74.5054 309.531 75.978C310.091 77.4506 310.857 80.2797 311.232 82.2649C311.783 85.1789 311.879 86.4538 311.731 88.8822C311.631 90.5365 311.205 93.3789 310.785 95.1987C310.339 97.1326 309.493 99.629 308.749 101.207C308.048 102.692 306.814 104.923 306.005 106.165C305.197 107.407 303.757 109.185 302.806 110.115C301.854 111.046 299.874 112.598 298.406 113.565C296.937 114.531 294.192 115.966 292.306 116.754C290.42 117.541 288.544 118.495 288.138 118.874C287.513 119.458 287.421 119.768 287.537 120.916C287.624 121.784 288.208 123.24 289.164 124.976C289.985 126.465 291.317 128.834 292.125 130.24C292.933 131.646 294.294 134.015 295.149 135.504C296.005 136.993 297.536 139.666 298.553 141.444C299.57 143.223 301.196 146.065 302.167 147.761C303.138 149.457 304.654 152.13 305.536 153.701C306.418 155.273 307.669 157.591 308.317 158.853C309.274 160.716 309.456 161.329 309.283 162.114C309.125 162.834 308.811 163.19 308.057 163.505C307.3 163.821 305.572 163.925 301.239 163.915C297.047 163.905 295.1 163.784 294.231 163.478C293.569 163.245 292.659 162.619 292.209 162.086C291.759 161.553 290.893 160.159 290.284 158.989C289.675 157.818 288.465 155.642 287.595 154.153C286.726 152.664 285.303 150.16 284.434 148.588C283.565 147.017 282.291 144.715 281.602 143.475C280.914 142.234 279.73 140.136 278.971 138.813C278.213 137.489 276.527 134.48 275.226 132.127C273.924 129.773 272.255 126.727 271.515 125.359C270.776 123.991 269.554 122.24 268.801 121.469C267.889 120.537 267.077 120.001 266.376 119.869C265.795 119.76 262.976 119.715 260.11 119.767C254.899 119.863 254.899 119.863 254.021 120.845C253.144 121.828 253.144 121.828 253.12 140.848C253.102 154.339 252.993 160.253 252.743 161.193C252.521 162.031 252.079 162.75 251.542 163.148C250.764 163.725 250.249 163.783 245.372 163.838ZM72.4609 150.092C82.5442 150.092 83.6236 150.042 85.8541 149.473C87.1884 149.133 89.0418 148.47 89.9728 148C90.9037 147.531 92.6432 146.242 93.8381 145.136C95.5054 143.594 96.2745 142.594 97.1442 140.837C98.2745 138.554 98.2779 138.536 98.3831 134.168C98.4505 131.373 98.3552 129.245 98.1197 128.285C97.9168 127.458 97.4132 126.058 97.0006 125.174C96.588 124.289 95.4875 122.793 94.555 121.847C93.6225 120.901 92.1117 119.704 91.1977 119.186C90.2837 118.667 88.252 117.796 86.6827 117.249C83.8294 116.254 83.8294 116.254 72.4898 116.162C61.1501 116.07 61.1501 116.07 60.1486 116.964C59.1472 117.858 59.1472 117.858 59.0506 132.246C58.9975 140.159 59.0652 147.102 59.2011 147.676C59.3647 148.366 59.7935 148.95 60.4709 149.405C61.4895 150.089 61.5389 150.092 72.4609 150.092ZM266.869 105.877C277.582 105.877 278.668 105.829 280.936 105.259C282.288 104.919 284.546 104.076 285.953 103.387C287.82 102.472 289.041 101.601 290.468 100.169C291.642 98.9916 292.776 97.4847 293.303 96.4018C293.787 95.4092 294.43 93.8067 294.733 92.8408C295.131 91.5723 295.284 90.14 295.284 87.6839C295.284 85.084 295.135 83.7978 294.652 82.2214C294.304 81.0873 293.558 79.3958 292.995 78.4625C292.431 77.5293 291.066 75.9212 289.962 74.889C288.626 73.6401 287.141 72.6261 285.524 71.858C284.187 71.223 282.484 70.5694 281.739 70.4055C280.994 70.2416 278.827 69.8857 276.923 69.6147C274.154 69.2205 271.604 69.1428 264.181 69.2265C254.9 69.3311 254.9 69.3311 254.014 70.3218C253.129 71.3124 253.129 71.3124 253.212 87.717C253.294 104.121 253.294 104.121 254.277 104.999C255.26 105.877 255.26 105.877 266.869 105.877ZM71.6823 102.267C80.8359 102.267 81.6497 102.224 83.572 101.631C84.7069 101.281 86.4233 100.598 87.3862 100.113C88.3492 99.6274 89.9746 98.3904 90.9983 97.3637C92.1685 96.1899 93.2149 94.762 93.8167 93.5174C94.3431 92.4287 94.9865 90.7178 95.2465 89.7154C95.5064 88.7131 95.7191 86.8705 95.7191 85.6208C95.7191 84.0346 95.4939 82.6402 94.9733 81.0021C94.5631 79.7114 93.665 77.7987 92.9775 76.7515C92.29 75.7043 91.041 74.3054 90.2021 73.6427C89.3631 72.98 87.8972 72.0446 86.9444 71.564C85.9916 71.0833 84.0392 70.3505 82.6058 69.9354C80.0714 69.2015 79.7409 69.1807 70.6186 69.1807C62.605 69.1807 61.1399 69.2491 60.5669 69.6501C60.198 69.9083 59.6938 70.5107 59.4464 70.9887C59.0662 71.7235 58.9973 74.011 59.0011 85.7842C59.0044 96.3109 59.0973 99.894 59.3815 100.462C59.5883 100.876 60.2297 101.451 60.8069 101.74C61.7416 102.209 62.9288 102.266 71.6823 102.267Z" fill="#F46B08"/>
</g>
<defs>
<clipPath id="clip0_765_60">
<rect width="360" height="536" fill="white"/>
</clipPath>
</defs>
</svg>
